# xmcd
#
# Track frame offsets: 
#        150
#        11271
#        23266
#        32647
#        45383
#        55063
#        64325
#        75108
#        84828
#        98497
#        108358
#        122196
#        137142
#        149447
#        160762
#        173509
#
# Disc length: 2527 seconds
#
# Revision: 2
# Processed by: cddbd v1.5.1PL0 Copyright (c) Steve Scherf et al.
# Submitted via: ExactAudioCopy v0.95b2
#
DISCID=af09dd10
DTITLE=Various Artist - Psychotic Moose and the Soul Searchers - Wild 60s Pun
DTITLE=k Classics
DYEAR=1900
DGENRE=
TTITLE0=the hangmen - what a girl can do
TTITLE1=the hangmen - faces
TTITLE2=richies renegades - dont cry
TTITLE3=bram rigg set - i can  only give you everything
TTITLE4=bram rigg set - take the time be yourself
TTITLE5=the woolies - who do you love
TTITLE6=HM subjects - dont bring me down
TTITLE7=jeremiah - no sense nonsense
TTITLE8=moonrakers - baby please dont go
TTITLE9=invasion - do you like what you see
TTITLE10=royal aircoach - wondering why
TTITLE11=the falcons - i gotta see her
TTITLE12=shadow casters - cinnamon sonwflake
TTITLE13=morning after - things you do
TTITLE14=blue things - the orange rooftop of your mind
TTITLE15=the free - decision for lost soul blue
EXTD=
EXTT0=
EXTT1=
EXTT2=
EXTT3=
EXTT4=
EXTT5=
EXTT6=
EXTT7=
EXTT8=
EXTT9=
EXTT10=
EXTT11=
EXTT12=
EXTT13=
EXTT14=
EXTT15=
PLAYORDER=
